# xmcd
#
# Track frame offsets:
#	150
#	13592
#	29582
#	39592
#	51250
#	61182
#	73917
#	91595
#	103910
#	113910
#	124545
#
# Disc length: 1830 seconds
#
# Revision: 1
# Processed by: cddbd v1.5.2PL0 Copyright (c) Steve Scherf et al.
# Submitted via: audiograbber 1.83.01
#
DISCID=9207240b
DTITLE=Lynn Anderson - Rose Garden
DYEAR=1971
DGENRE=Country
TTITLE0=Rose Garden
TTITLE1=For The Good Times
TTITLE2=Another Lonely Night
TTITLE3=I Don't Want To Play House
TTITLE4=Snowbird
TTITLE5=Your Sweet Love Lifted Me
TTITLE6=Sunday Morning Coming Down
TTITLE7=I Still Belong To You
TTITLE8=I Wish I Was A Little Boy Again
TTITLE9=It's Only Make Belive
TTITLE10=Nothing Between Us
EXTD=
EXTT0=
EXTT1=
EXTT2=
EXTT3=
EXTT4=
EXTT5=
EXTT6=
EXTT7=
EXTT8=
EXTT9=
EXTT10=
PLAYORDER=
